<svg id="SvgjsSvg1001" width="288" height="288" xmlns="http://www.w3.org/2000/svg" version="1.1" xmlns:xlink="http://www.w3.org/1999/xlink" xmlns:svgjs="http://svgjs.com/svgjs"><defs id="SvgjsDefs1002"></defs><g id="SvgjsG1008" transform="matrix(1,0,0,1,0,0)"><svg xmlns="http://www.w3.org/2000/svg" width="288" height="288" version="1.2" viewBox="0 0 375 375"><path d="M 187.378906 337.261719 C 147.363281 337.261719 109.683594 321.683594 81.410156 293.351562 C 53.074219 265.074219 37.5 227.394531 37.5 187.378906 C 37.5 147.363281 53.074219 109.683594 81.410156 81.410156 C 109.683594 53.074219 147.363281 37.5 187.378906 37.5 C 227.394531 37.5 265.074219 53.074219 293.351562 81.410156 C 321.683594 109.746094 337.261719 147.363281 337.261719 187.378906 C 337.261719 227.394531 321.683594 265.074219 293.351562 293.351562 C 265.074219 321.683594 227.394531 337.261719 187.378906 337.261719 Z M 187.378906 46.484375 C 149.761719 46.484375 114.355469 61.164062 87.757812 87.757812 C 61.164062 114.355469 46.484375 149.761719 46.484375 187.378906 C 46.484375 225 61.164062 260.402344 87.757812 287 C 114.355469 313.597656 149.761719 328.273438 187.378906 328.273438 C 225 328.273438 260.402344 313.597656 287 287 C 313.597656 260.402344 328.273438 225 328.273438 187.378906 C 328.273438 149.761719 313.597656 114.355469 287 87.757812 C 260.402344 61.164062 225 46.484375 187.378906 46.484375 Z M 187.378906 46.484375 " fill="#ffffff" class="color000 svgShape"></path><path fill="none" stroke="#ffffff" stroke-linecap="round" d="M 0.500065 -0.000217331 L 79.334047 -0.000217331 " transform="matrix(0 -3.74853 3.75 0 39.575 337.476)" class="colorStroke000 svgStroke"></path><path fill="none" stroke="#ffffff" stroke-linecap="round" d="M 0.499994 0.00000467717 L 79.499999 0.00000467717 " transform="rotate(-90 336.562 .937) scale(3.75)" class="colorStroke000 svgStroke"></path><path fill="none" stroke="#ffffff" stroke-linecap="round" d="M 0.500343 0.0000006895 L 79.254069 0.0000006895 " transform="matrix(3.7522 0 0 3.75 37.705 39.375)" class="colorStroke000 svgStroke"></path><path fill="none" stroke="#ffffff" stroke-linecap="round" d="M 0.500275 0.000165885 L 88.286987 -0.00016788 " transform="matrix(1.67114 -3.35779 3.3572 1.67085 39.148 336.953)" class="colorStroke000 svgStroke"></path><path fill="none" stroke="#ffffff" stroke-linecap="round" d="M 0.499774 0.000268057 L 88.385299 0.000269589 " transform="matrix(1.67067 3.3533 -3.3565 1.67226 187.498 38.734)" class="colorStroke000 svgStroke"></path><path fill="none" stroke="#ffffff" stroke-linecap="round" d="M 0.499566 -0.000271313 L 77.815269 -0.000271313 " transform="matrix(0 -3.75419 3.75 0 187.7 334.926)" class="colorStroke000 svgStroke"></path><path fill="none" stroke="#ffffff" stroke-linecap="round" d="M 0.499834 0.00000331617 L 78.139993 0.00000331617 " transform="matrix(3.74821 0 0 3.75 39.58 189.375)" class="colorStroke000 svgStroke"></path></svg></g></svg>